<?xml version="1.0" encoding="UTF-8" standalone="no" ?>
<!DOCTYPE svg PUBLIC "-//W3C//DTD SVG 1.1//EN" "http://www.w3.org/Graphics/SVG/1.1/DTD/svg11.dtd">
<svg xmlns="http://www.w3.org/2000/svg" xmlns:xlink="http://www.w3.org/1999/xlink" version="1.1" width="2000" height="2000" viewBox="0 0 2000 2000" xml:space="preserve">
<desc>Created with Fabric.js 4.2.0</desc>
<defs>
</defs>
<g transform="matrix(0 0 0 0 0 0)" id="71e61645-70b0-4748-a7ad-d4f820ee4ea0"  >
</g>
<g transform="matrix(1 0 0 1 1000 1000)" id="24d9fd1a-ea4c-4cb6-a636-a3f5b14d9d3f"  >
<rect style="stroke: none; stroke-width: 1; stroke-dasharray: none; stroke-linecap: butt; stroke-dashoffset: 0; stroke-linejoin: miter; stroke-miterlimit: 4; fill: rgb(255,255,255); fill-rule: nonzero; opacity: 1;" vector-effect="non-scaling-stroke"  x="-1000" y="-1000" rx="0" ry="0" width="2000" height="2000" />
</g>
<g transform="matrix(1.88 0 0 2.09 1003.16 1001)"  >
<g style="" vector-effect="non-scaling-stroke"   >
		<g transform="matrix(1 0 0 1 2.51 -0.72)"  >
<path style="stroke: none; stroke-width: 1; stroke-dasharray: none; stroke-linecap: butt; stroke-dashoffset: 0; stroke-linejoin: miter; stroke-miterlimit: 4; fill: rgb(0,0,0); fill-opacity: 0.6; fill-rule: nonzero; opacity: 1;" vector-effect="non-scaling-stroke"  transform=" translate(-748.17, -405.15)" d="M -84.52 -81.13 C -94.62 -73.4 -88.88 -59.55 -90.33 -48.91 C -89.29 27.31 -89.61 103.5 -88.33 179.8 C -85.99 416.1 -81.32 888.9 -81.32 888.9 C -81.32 888.9 974.5 888.7 1587 891.9 C 1556.1601316073134 709.8994137856696 1506.7379991072312 631.9598205445891 1448.7379991072312 520.9598205445891 C 1407.7379991072312 425.659820544589 1435.8151338392356 278.6484791429418 1388.1572005356613 187 C 1353.4468670535332 121.67044713388239 1287.1062658929336 66.80492507310822 1228.7117990179543 13.884328518071072 C 1189.9490653572723 -21.04440544885718 1103.2387318751441 -80.46351039466974 1103.2387318751441 -80.46351039466974 C 1103.2387318751441 -80.46351039466974 914.5 -77.77 848.2 -80.17 C 537.6 -80.84 227 -81.38 -83.6 -81.6 C -83.91 -81.44 -84.21 -81.29 -84.52 -81.13 Z" stroke-linecap="round" />
</g>
		<g transform="matrix(1 0 0 1 -44.87 -1.62)"  >
<path style="stroke: none; stroke-width: 1; stroke-dasharray: none; stroke-linecap: butt; stroke-dashoffset: 0; stroke-linejoin: miter; stroke-miterlimit: 4; fill: rgb(0,0,0); fill-opacity: 0.6; fill-rule: nonzero; opacity: 1;" vector-effect="non-scaling-stroke"  transform=" translate(-700.79, -404.24)" d="M 665.2 -83.08 C 413.7 -81.89 162.2 -82.43 -89.29 -81.61 C -90.35 164.3 -85.06 410.2 -84.09 656.1 C -83.37 733.7 -82.64 811.3 -81.92 888.9 C 442.4 889.8 966.7 890.7 1491 891.6 C 1253 747.5 1414.5305265095392 430.52578938535714 1284.4384211751496 245.95199995669128 C 1225.9831579745162 163.68663154076728 1108.3799998917282 140.45925276030846 1044.452631464977 63.102258007539014 C 1010.4889472516014 23.064863263431292 973 -76.01 973 -76.01 C 973 -76.01 706.6 -83.67 665.2 -83.08 Z" stroke-linecap="round" />
</g>
		<g transform="matrix(1 0 0 1 -179.4 -0.19)"  >
<path style="stroke: none; stroke-width: 1; stroke-dasharray: none; stroke-linecap: butt; stroke-dashoffset: 0; stroke-linejoin: miter; stroke-miterlimit: 4; fill: rgb(0,0,0); fill-opacity: 0.6; fill-rule: nonzero; opacity: 1;" vector-effect="non-scaling-stroke"  transform=" translate(-566.25, -405.68)" d="M -85.01 -74.02 C -92.39 -66.64 -85.37 -55.79 -87.81 -46.91 C -86.65 265.1 -84.66 577.2 -83.18 889.2 C 317.2 888.3 717.5 885.8 1118 890.4 C 1152 890.6 1187 890.9 1221 890 C 1219 768.3 1188.511380193506 654.9708434890194 1160.2024707583616 539.2539131114049 C 1134.8935613232172 432.49911150732595 1128.6613924477078 314.4474744346223 1066.6613924477078 226.27277264121392 C 1002.5661392447707 136.927616798107 937.6569254759338 119.70821566213074 874.8208312348175 63.96737217311123 C 797.7637961448515 -5.006040080499545 772.2 -78.96 772.2 -78.96 C 772.2 -78.96 222.1 -81.07 -85.01 -74.02 Z" stroke-linecap="round" />
</g>
		<g transform="matrix(1 0 0 1 -252.76 0)"  >
<path style="stroke: none; stroke-width: 1; stroke-dasharray: none; stroke-linecap: butt; stroke-dashoffset: 0; stroke-linejoin: miter; stroke-miterlimit: 4; fill: rgb(0,0,0); fill-opacity: 0.6; fill-rule: nonzero; opacity: 1;" vector-effect="non-scaling-stroke"  transform=" translate(-492.9, -405.87)" d="M -92.42 -79.11 C -89.97 243.8 -87.52 566.7 -85.07 889.6 C 201.8 889.9 488.7 889.9 775.5 895.6 C 880.4 896.9 1019.1208334212072 892.0379980668968 1078.2279884013806 891.1919987112645 C 1063.5639995704214 823.9632499170215 1056.184018901454 702.4376500888529 985.386809150022 572.660427450066 C 951.8448050690263 512.8040167535614 938.710823755691 443.28599505984727 897.9140156796152 388.00198689785583 C 832.8900118134087 299.75038556616244 731.269189131664 255.61880356550154 650.4859843203848 181.36760390916433 C 569.858386854898 108.12084996192539 494.3199978521075 23.75581140530913 403.96561701130855 -30.020286542480527 C 365.2420362993831 -49.47680378029079 300.3108667135408 -84.03524261613305 300.3108667135408 -84.03524261613305 C 300.3108667135408 -84.03524261613305 9.82 -84.94 -92.42 -79.11 Z" stroke-linecap="round" />
</g>
		<g transform="matrix(1 0 0 1 -320.41 40.35)"  >
<path style="stroke: none; stroke-width: 1; stroke-dasharray: none; stroke-linecap: butt; stroke-dashoffset: 0; stroke-linejoin: miter; stroke-miterlimit: 4; fill: rgb(0,0,0); fill-opacity: 0.6; fill-rule: nonzero; opacity: 1;" vector-effect="non-scaling-stroke"  transform=" translate(-425.24, -446.21)" d="M -88.6 95.54 C -90.38 166.1 -88.23 236.7 -88.68 307.4 L -86.19 890 C 229.7 890.2 939.8 892.4 939.8 892.4 C 906.9 734.7 779.3 676 721.4 519.4 C 676.8 398.8 566.5 307.1 458.9 236.6 C 355.2 168.7 220.3 165.7 107.8 113.5 C 40.05 82.12 -24.82 24.2 -85.28 0.03 Z" stroke-linecap="round" />
</g>
		<g transform="matrix(1 0 0 1 -444.46 166.28)"  >
<path style="stroke: none; stroke-width: 1; stroke-dasharray: none; stroke-linecap: butt; stroke-dashoffset: 0; stroke-linejoin: miter; stroke-miterlimit: 4; fill: rgb(0,0,0); fill-opacity: 0.6; fill-rule: nonzero; opacity: 1;" vector-effect="non-scaling-stroke"  transform=" translate(-301.2, -572.15)" d="M -95.69 252.3 L -87.65 890.4 L 698.1 892 C 698.1 892 570.0793084238715 588.0589906976612 449.5672897498636 483.91923370010795 C 300.1604299274059 354.77986919874877 131.4 466.5 -95.69 252.3 Z" stroke-linecap="round" />
</g>
		<g transform="matrix(1 0 0 1 -524.81 264.13)"  >
<path style="stroke: none; stroke-width: 1; stroke-dasharray: none; stroke-linecap: butt; stroke-dashoffset: 0; stroke-linejoin: miter; stroke-miterlimit: 4; fill: rgb(0,0,0); fill-opacity: 0.6; fill-rule: nonzero; opacity: 1;" vector-effect="non-scaling-stroke"  transform=" translate(-220.85, -670)" d="M -85.59 444.4 L -85.59 890.6 L 527.2987947972257 895.6 C 527.2987947972257 895.6 490.11403904415187 712.2929212369332 354.3216121181033 626.3733572841141 C 211.53289889940083 526.1782761942345 57.98 629.2 -85.59 444.4 Z" stroke-linecap="round" />
</g>
</g>
</g>
</svg>